<svg width="24" height="24" xmlns="http://www.w3.org/2000/svg">
 <title>help</title>

 <g>
  <title>Layer 1</title>
  <path id="svg_1" fill="#72767d" d="m11.97274,0.09161c-6.58132,0 -11.93565,5.35433 -11.93565,11.93565c0,6.58251 5.35433,11.93565 11.93565,11.93565c2.43368,0 4.76591,-0.71853 6.74603,-2.078l-1.34992,-1.967c-1.58267,1.08376 -3.44702,1.65786 -5.39611,1.65786c-5.26482,0 -9.54852,-4.28371 -9.54852,-9.54852c0,-5.26482 4.28371,-9.54852 9.54852,-9.54852c5.26482,0 9.54852,4.28371 9.54852,9.54852l0,0.93337c0,1.65667 -0.71375,2.64733 -1.9097,2.64733l-0.00239,0.02148c-0.07161,-0.01552 -0.1492,-0.02148 -0.22558,-0.02148l-0.24946,0c-0.67198,0 -1.67099,-0.97634 -1.67099,-1.63399l0,-1.94671c0,-3.02688 -2.46233,-5.4904 -5.4904,-5.4904c-3.02808,0 -5.4904,2.46233 -5.4904,5.4904c0,3.02808 2.46233,5.4904 5.4904,5.4904c1.47286,0 2.80488,-0.58962 3.79196,-1.53612c0.77462,1.14105 2.09232,2.01354 3.36944,2.01354l0.00239,-0.02268c0.074,0.01552 0.15158,0.02268 0.23036,0.02268l0.24468,0c2.56855,0 4.29684,-2.0219 4.29684,-5.03446l0,-0.93337c0,-6.58132 -5.35433,-11.93565 -11.93565,-11.93565zm0,15.03773c-1.71157,0 -3.10327,-1.3917 -3.10327,-3.10327c0,-1.71157 1.3917,-3.10327 3.10327,-3.10327c1.71157,0 3.10327,1.3917 3.10327,3.10327c0,1.71157 -1.3917,3.10327 -3.10327,3.10327z" class="st0"/>
 </g>
</svg>