<svg width="25" height="25" xmlns="http://www.w3.org/2000/svg">
 <title>help</title>

 <g>
  <title>Layer 1</title>
  <path id="svg_1" fill="#b9bbbe" d="m18.4071,11.9094c3.58856,0 6.49766,2.9091 6.49766,6.49766c0,3.58856 -2.9091,6.49766 -6.49766,6.49766c-3.58856,0 -6.49766,-2.9091 -6.49766,-6.49766c0,-3.58856 2.9091,-6.49766 6.49766,-6.49766zm-6.49766,-11.81514c6.52566,0 11.81576,5.29009 11.81576,11.81576c0,0.31098 -0.01201,0.61914 -0.0356,0.92406c-0.51731,-0.49096 -1.10316,-0.91039 -1.74159,-1.24274c-0.16786,-5.3992 -4.59805,-9.72499 -10.03858,-9.72499c-5.54697,0 -10.04367,4.4967 -10.04367,10.04367c0,5.44093 4.32642,9.87136 9.72673,10.03876c0.33166,0.63824 0.75089,1.22375 1.24138,1.74103c-0.30452,0.02391 -0.61307,0.03596 -0.92445,0.03596c-6.52566,0 -11.81576,-5.2901 -11.81576,-11.81576c0,-6.52567 5.2901,-11.81576 11.81576,-11.81576zm6.49766,14.17702l-0.10618,0.00952c-0.24111,0.04376 -0.43123,0.23389 -0.47499,0.475l-0.00952,0.10617l-0.00041,2.95348l-2.95584,0.00091l-0.10618,0.00952c-0.24111,0.04376 -0.43123,0.23388 -0.47499,0.47499l-0.00952,0.10618l0.00952,0.10618c0.04376,0.24111 0.23388,0.43123 0.47499,0.47499l0.10618,0.00952l2.95703,-0.00091l0.00054,2.9585l0.00951,0.10618c0.04377,0.24111 0.23389,0.43124 0.475,0.475l0.10618,0.00951l0.10617,-0.00951c0.24112,-0.04376 0.43124,-0.23389 0.475,-0.475l0.00952,-0.10618l-0.00054,-2.9585l2.95811,0.00091l0.10617,-0.00952c0.24111,-0.04376 0.43124,-0.23388 0.475,-0.47499l0.00952,-0.10618l-0.00952,-0.10618c-0.04376,-0.24111 -0.23389,-0.43123 -0.475,-0.47499l-0.10617,-0.00952l-2.95929,-0.00091l0.00041,-2.95348l-0.00952,-0.10617c-0.04376,-0.24111 -0.23388,-0.43124 -0.47499,-0.475l-0.10618,-0.00952zm-10.67773,0.92693c0.78131,0.99164 1.87931,1.66997 3.1071,1.9215c-0.07155,0.41763 -0.10842,0.84818 -0.10842,1.28735c0,0.16643 0.00529,0.33163 0.01572,0.49543c-1.74278,-0.28674 -3.31029,-1.21646 -4.40635,-2.60757c-0.30285,-0.38438 -0.23676,-0.94149 0.14761,-1.24433c0.38437,-0.30285 0.94148,-0.23676 1.24433,0.14761zm0.63643,-7.12696c0.81511,0 1.4759,0.66078 1.4759,1.4759c0,0.81511 -0.66079,1.4759 -1.4759,1.4759c-0.81513,0 -1.4759,-0.66079 -1.4759,-1.4759c0,-0.81513 0.66078,-1.4759 1.4759,-1.4759zm7.08835,0c0.81511,0 1.4759,0.66078 1.4759,1.4759c0,0.81511 -0.66079,1.4759 -1.4759,1.4759c-0.81513,0 -1.4759,-0.66079 -1.4759,-1.4759c0,-0.81513 0.66078,-1.4759 1.4759,-1.4759z" class="st0"/>
 </g>
</svg>