<svg width="24" height="24" xmlns="http://www.w3.org/2000/svg">
 <title>help</title>
 <style type="text/css">
	.st0{fill:#b9bbbe;}
</style>

 <g>
  <title>Layer 1</title>
  <path id="svg_1" d="m17.85305,7.20037l3.71584,0c1.31737,0 2.38654,1.07036 2.38654,2.38654l0,2.38654l-23.86539,0l0,-2.38654c0,-1.31618 1.07036,-2.38654 2.38654,-2.38654l3.71584,0c-0.53816,-0.28042 -1.04769,-0.62289 -1.47369,-1.04769c-1.39613,-1.39613 -1.39613,-3.66692 0,-5.06185c1.35197,-1.35197 3.70749,-1.35197 5.06185,-0.00239c1.95338,1.95338 2.2171,5.62985 2.23977,6.04272c0.00131,0.01372 -0.00167,0.026 -0.00465,0.03823c-0.00251,0.01011 -0.00489,0.02018 -0.00489,0.03098l0.02387,0c0,-0.01091 -0.00251,-0.02107 -0.00501,-0.03118c-0.00286,-0.01199 -0.00585,-0.02388 -0.00453,-0.03684c0.02387,-0.41287 0.28638,-4.08934 2.23977,-6.04272c1.35436,-1.35197 3.70749,-1.35078 5.06185,-0.00119c1.39493,1.39851 1.39493,3.6693 0,5.06424c-0.426,0.4248 -0.93552,0.76727 -1.47369,1.04769zm-11.44704,-2.73497c-0.46538,-0.46657 -0.46538,-1.2231 0,-1.68848c0.22433,-0.22553 0.52385,-0.34843 0.84364,-0.34843c0.3198,0 0.61931,0.12291 0.84364,0.34843c0.70403,0.70403 1.11451,1.96651 1.33408,3.01897c-1.05008,-0.21837 -2.3221,-0.63124 -3.02136,-1.3305zm8.21089,1.33288c0.22075,-1.05366 0.63005,-2.31614 1.33527,-3.02017c0.22433,-0.22672 0.52385,-0.34963 0.84364,-0.34963c0.3198,0 0.61931,0.12291 0.84245,0.34724c0.46538,0.46657 0.46657,1.2231 0.00119,1.68967c-0.70522,0.70522 -1.96889,1.11571 -3.02255,1.33288zm-13.3336,8.56171l0,7.15962c0,1.31618 1.07036,2.38654 2.38654,2.38654l7.15962,0l0,-9.54616l-9.54616,0zm11.9327,0l0,9.54616l7.15962,0c1.31737,0 2.38654,-1.07036 2.38654,-2.38654l0,-7.15962l-9.54616,0z" class="st0"/>
 </g>
</svg>