<svg width="24" height="24" xmlns="http://www.w3.org/2000/svg">
 <title>help</title>

 <g>
  <title>Layer 1</title>
  <path id="svg_1" fill="#dcddde" d="m11.97835,0.0511c-6.60056,0 -11.97055,5.37119 -11.97055,11.97055c0,6.60176 5.36999,11.97055 11.97055,11.97055c6.60056,0 11.97055,-5.36879 11.97055,-11.97055c0,-6.59936 -5.36999,-11.97055 -11.97055,-11.97055zm0,19.45214c-0.82597,0 -1.49632,-0.66915 -1.49632,-1.49632c0,-0.82597 0.67035,-1.49632 1.49632,-1.49632c0.82597,0 1.49632,0.67035 1.49632,1.49632c0,0.82717 -0.67035,1.49632 -1.49632,1.49632zm1.19706,-5.23712l0,1.34669l-2.39411,0l0,-3.59117l1.19706,0c1.32155,0 2.39411,-1.07376 2.39411,-2.39411c0,-1.32155 -1.07256,-2.39411 -2.39411,-2.39411c-1.32155,0 -2.39411,1.07256 -2.39411,2.39411l-2.39411,0c0,-2.63951 2.14871,-4.78822 4.78822,-4.78822c2.63951,0 4.78822,2.14871 4.78822,4.78822c0,2.22772 -1.52864,4.1047 -3.59117,4.63859z" class="st0"/>
 </g>
</svg>