<?xml version="1.0" encoding="utf-8"?>
<!-- Generator: Adobe Illustrator 24.1.1, SVG Export Plug-In . SVG Version: 6.00 Build 0)  -->
<svg version="1.1" id="Layer_1" xmlns="http://www.w3.org/2000/svg" xmlns:xlink="http://www.w3.org/1999/xlink" x="0px" y="0px"
	 viewBox="0 0 512 512" style="enable-background:new 0 0 512 512;" xml:space="preserve">
<style type="text/css">
	.st0{fill:#dcddde;}
</style>
<g id="XMLID_1_">
	<path id="XMLID_5_" class="st0" d="M512,292.7L471,31.6C467.8,14.2,452.8,0,434.7,0H77.3C59.2,0,43.4,14.2,41,31.6L0,292.7v183
		C0,496.2,16.6,512,36.3,512h439.4c20.5,0,36.3-16.6,36.3-36.3V292.7z M392.1,313.2l-15.8,32.3c-6.3,12.6-18.9,20.5-33.1,20.5H168
		c-14.2,0-26-7.9-32.3-20.5l-15.8-33.1c-6.3-11.8-18.9-20.5-32.3-20.5H36.3L72.6,35.5h366.1l36.3,256.4h-50.5
		C410.2,292.7,398.4,300.6,392.1,313.2L392.1,313.2z"/>
</g>
</svg>
