<svg width="24" height="24" xmlns="http://www.w3.org/2000/svg">

 <g>
  <title>Layer 1</title>
  <g id="XMLID_1_">
   <path fill="#dcddde" d="m21.31332,0.02573l-18.63994,0c-1.47683,0 -2.63434,1.18412 -2.63434,2.66095l-0.0133,18.62663c0,1.46352 1.17082,2.66095 2.64764,2.66095l18.63994,0c1.46352,0 2.66095,-1.19743 2.66095,-2.66095l0,-18.62663c0,-1.47683 -1.19743,-2.66095 -2.66095,-2.66095zm0,15.96569l-5.3219,0c0,2.20859 -1.79614,3.99142 -3.99142,3.99142c-2.19528,0 -3.99142,-1.78283 -3.99142,-3.99142l-5.3352,0l0,-13.30474l18.63994,0l0,13.30474z" class="st0" id="XMLID_5_"/>
  </g>
 </g>
</svg>