<svg width="20.000000000000004" height="22" xmlns="http://www.w3.org/2000/svg">
 <title>help</title>

 <g>
  <title>Layer 1</title>
  <path id="svg_1" fill="#b9bbbe" d="m12.03847,1.6576l0,4.73946c0,1.4377 1.1603,2.59777 2.5984,2.59777l4.7407,0c0.5852,0 0.8827,-0.70397 0.4662,-1.12041l-6.6846,-6.68283c-0.4166,-0.41644 -1.1207,-0.1289 -1.1207,0.46601zm2.5757,9.36562c-2.5423,0 -4.60604,-2.06379 -4.60604,-4.60611l0,-5.36378l-7.97589,0c-1.09668,0 -1.99397,0.89729 -1.99397,1.99397l0,15.95182c0,1.0966 0.89729,1.9939 1.99397,1.9939l15.95173,0c1.0967,0 1.994,-0.8973 1.994,-1.9939l0,-7.9759l-5.3638,0zm-2.5759,2.9718l-0.8,0l-2.4,0l-0.8,0c0,1.1046 0.89543,2 2,2c1.1046,0 2,-0.8954 2,-2zm5.7766,0.331c0,0.6136 -0.4973,1.111 -1.1109,1.111c-0.6135,0 -1.1109,-0.4974 -1.1109,-1.111c0,-0.6135 0.4974,-1.1109 1.1109,-1.1109c0.6136,0 1.1109,0.4974 1.1109,1.1109zm-15.7766,-1.0949l0.53532,-1.2361l3.0896,1.7835c0.16669,0.0962 0.16669,0.3368 0,0.433l-3.0896,1.7835l-0.53532,-1.2361l1.32339,-0.7639l-1.32339,-0.7639z" class="st0"/>
 </g>
</svg>